STARTFONT 2.1
FONT serif12
SIZE 13 75 75
FONTBOUNDINGBOX 11 14 0 -3

STARTPROPERTIES 10
COPYRIGHT "Share and enjoy."
POINT_SIZE 130
WEIGHT 10
RESOLUTION_X 75
RESOLUTION_Y 75
X_HEIGHT 11
QUAD_WIDTH 11
DEFAULT_CHAR 0
FONT_DESCENT 3
FONT_ASCENT 11
ENDPROPERTIES

CHARS 125

STARTCHAR C002
ENCODING 2
SWIDTH 846 0
DWIDTH 11 0
BBX 11 14 0 -3
BITMAP
0000
0400
0400
0000
0400
0400
0800
1000
1100
1100
0E00
0000
0000
0000
ENDCHAR

STARTCHAR C003
ENCODING 3
SWIDTH 846 0
DWIDTH 11 0
BBX 11 14 0 -3
BITMAP
0000
0000
0000
0000
0F00
1100
1000
1000
1000
1100
0E00
0400
0200
0C00
ENDCHAR

STARTCHAR C004
ENCODING 4
SWIDTH 846 0
DWIDTH 11 0
BBX 11 14 0 -3
BITMAP
0480
0480
0000
0000
0000
0000
0000
0000
0000
0000
0000
0000
0000
0000
ENDCHAR

STARTCHAR C005
ENCODING 5
SWIDTH 846 0
DWIDTH 11 0
BBX 11 14 0 -3
BITMAP
0200
0100
0080
0000
0000
0000
0000
0000
0000
0000
0000
0000
0000
0000
ENDCHAR

STARTCHAR C006
ENCODING 6
SWIDTH 846 0
DWIDTH 11 0
BBX 11 14 0 -3
BITMAP
0000
1DC0
2220
2200
7F80
2200
2200
2200
2200
2200
7700
0000
0000
0000
ENDCHAR

STARTCHAR C007
ENCODING 7
SWIDTH 846 0
DWIDTH 11 0
BBX 11 14 0 -3
BITMAP
0000
0400
0800
0C00
0000
0000
0000
0000
0000
0000
0000
0000
0000
0000
ENDCHAR

STARTCHAR C010
ENCODING 8
SWIDTH 846 0
DWIDTH 11 0
BBX 11 14 0 -3
BITMAP
0000
0400
0400
0000
0400
0400
0400
0400
0400
0400
0400
0000
0000
0000
ENDCHAR

STARTCHAR C011
ENCODING 9
SWIDTH 846 0
DWIDTH 11 0
BBX 11 14 0 -3
BITMAP
0000
0000
0000
0000
0000
0000
0000
0000
0000
0000
0000
0000
0000
0000
ENDCHAR

STARTCHAR C012
ENCODING 10
SWIDTH 846 0
DWIDTH 11 0
BBX 11 14 0 -3
BITMAP
0000
0000
0000
0000
0000
0000
0000
0000
0000
0000
0000
0000
0000
0000
ENDCHAR

STARTCHAR C013
ENCODING 11
SWIDTH 846 0
DWIDTH 11 0
BBX 11 14 0 -3
BITMAP
0100
0200
0400
0000
0000
0000
0000
0000
0000
0000
0000
0000
0000
0000
ENDCHAR

STARTCHAR C014
ENCODING 12
SWIDTH 846 0
DWIDTH 11 0
BBX 11 14 0 -3
BITMAP
0000
0000
0000
0000
0000
0000
0000
0000
0000
0000
0000
0000
0000
0000
ENDCHAR

STARTCHAR C015
ENCODING 13
SWIDTH 846 0
DWIDTH 11 0
BBX 11 14 0 -3
BITMAP
0000
0000
0000
0000
0000
0000
0000
0000
0000
0000
0000
0000
0000
0000
ENDCHAR

STARTCHAR C016
ENCODING 14
SWIDTH 846 0
DWIDTH 11 0
BBX 11 14 0 -3
BITMAP
0000
0780
0000
0000
0000
0000
0000
0000
0000
0000
0000
0000
0000
0000
ENDCHAR

STARTCHAR C017
ENCODING 15
SWIDTH 846 0
DWIDTH 11 0
BBX 11 14 0 -3
BITMAP
0000
0000
0000
0000
0000
0000
0000
0000
0000
0000
0000
0000
0000
0000
ENDCHAR

STARTCHAR C020
ENCODING 16
SWIDTH 846 0
DWIDTH 11 0
BBX 11 14 0 -3
BITMAP
0C80
1300
0000
0000
0000
0000
0000
0000
0000
0000
0000
0000
0000
0000
ENDCHAR

STARTCHAR C021
ENCODING 17
SWIDTH 846 0
DWIDTH 11 0
BBX 11 14 0 -3
BITMAP
0000
3680
4480
4400
FF80
4480
4480
4480
4480
4480
EDC0
0000
0000
0000
ENDCHAR

STARTCHAR C022
ENCODING 18
SWIDTH 846 0
DWIDTH 11 0
BBX 11 14 0 -3
BITMAP
3780
4480
4480
FF80
4480
4480
4480
4480
4480
4480
FFC0
0000
0000
0000
ENDCHAR

STARTCHAR C023
ENCODING 19
SWIDTH 846 0
DWIDTH 11 0
BBX 11 14 0 -3
BITMAP
0000
0000
0000
0000
0000
0000
FFE0
0000
0000
0000
0000
0000
0000
0000
ENDCHAR

STARTCHAR C024
ENCODING 20
SWIDTH 846 0
DWIDTH 11 0
BBX 11 14 0 -3
BITMAP
0000
0D00
1100
1000
3F00
1100
1100
1100
1100
1100
3B80
0000
0000
0000
ENDCHAR

STARTCHAR C025
ENCODING 21
SWIDTH 846 0
DWIDTH 11 0
BBX 11 14 0 -3
BITMAP
0F00
1100
1100
3F00
1100
1100
1100
1100
1100
1100
3B80
0000
0000
0000
ENDCHAR

STARTCHAR C026
ENCODING 22
SWIDTH 846 0
DWIDTH 11 0
BBX 11 14 0 -3
BITMAP
0000
0000
0000
0000
0000
0000
7F80
0000
0000
0000
0000
0000
0000
0000
ENDCHAR

STARTCHAR C027
ENCODING 23
SWIDTH 846 0
DWIDTH 11 0
BBX 11 14 0 -3
BITMAP
0880
0700
0000
0000
0000
0000
0000
0000
0000
0000
0000
0000
0000
0000
ENDCHAR

STARTCHAR C030
ENCODING 24
SWIDTH 846 0
DWIDTH 11 0
BBX 11 14 0 -3
BITMAP
0000
0000
0000
0000
0000
0000
3F00
0000
0000
0000
0000
0000
0000
0000
ENDCHAR

STARTCHAR C031
ENCODING 25
SWIDTH 846 0
DWIDTH 11 0
BBX 11 14 0 -3
BITMAP
0000
0000
0000
0000
0000
0000
0000
0000
0000
0000
0000
0000
0000
0000
ENDCHAR

STARTCHAR C032
ENCODING 26
SWIDTH 846 0
DWIDTH 11 0
BBX 11 14 0 -3
BITMAP
0000
0000
0000
0000
0000
0000
0000
0000
0000
0000
0000
0000
0000
0000
ENDCHAR

STARTCHAR C033
ENCODING 27
SWIDTH 846 0
DWIDTH 11 0
BBX 11 14 0 -3
BITMAP
0000
0000
0000
0000
0000
0000
0000
0000
0000
0000
0000
0000
0000
0000
ENDCHAR

STARTCHAR C034
ENCODING 28
SWIDTH 846 0
DWIDTH 11 0
BBX 11 14 0 -3
BITMAP
0000
0000
0000
0000
0000
0000
0000
0000
0000
0000
0000
0000
0000
0000
ENDCHAR

STARTCHAR C035
ENCODING 29
SWIDTH 846 0
DWIDTH 11 0
BBX 11 14 0 -3
BITMAP
0000
0000
0000
0000
0000
0000
0000
0000
0000
0000
0000
0000
0100
0100
ENDCHAR

STARTCHAR C036
ENCODING 30
SWIDTH 846 0
DWIDTH 11 0
BBX 11 14 0 -3
BITMAP
0C80
1300
0000
0000
0000
0000
0000
0000
0000
0000
0000
0000
0000
0000
ENDCHAR

STARTCHAR C037
ENCODING 31
SWIDTH 846 0
DWIDTH 11 0
BBX 11 14 0 -3
BITMAP
0300
0480
0300
0000
0000
0000
0000
0000
0000
0000
0000
0000
0000
0000
ENDCHAR

STARTCHAR C040
ENCODING 32
SWIDTH 846 0
DWIDTH 11 0
BBX 11 14 0 -3
BITMAP
0000
0000
0000
0000
0000
0000
0000
0000
0000
0000
0000
0000
0000
0000
ENDCHAR

STARTCHAR !
ENCODING 33
SWIDTH 846 0
DWIDTH 11 0
BBX 11 14 0 -3
BITMAP
0000
0400
0400
0400
0400
0400
0400
0400
0000
0400
0400
0000
0000
0000
ENDCHAR

STARTCHAR "
ENCODING 34
SWIDTH 846 0
DWIDTH 11 0
BBX 11 14 0 -3
BITMAP
0000
0A00
0A00
0A00
0A00
0000
0000
0000
0000
0000
0000
0000
0000
0000
ENDCHAR

STARTCHAR #
ENCODING 35
SWIDTH 846 0
DWIDTH 11 0
BBX 11 14 0 -3
BITMAP
0000
0480
0480
3FC0
0900
0900
1200
1200
7F80
2400
2400
0000
0000
0000
ENDCHAR

STARTCHAR $
ENCODING 36
SWIDTH 846 0
DWIDTH 11 0
BBX 11 14 0 -3
BITMAP
0400
0E00
1500
1400
1400
0C00
0600
0500
0500
1500
0E00
0400
0000
0000
ENDCHAR

STARTCHAR %
ENCODING 37
SWIDTH 846 0
DWIDTH 11 0
BBX 11 14 0 -3
BITMAP
0000
3600
4E00
8C00
8C00
9580
6640
0C40
0C40
1480
1300
0000
0000
0000
ENDCHAR

STARTCHAR &
ENCODING 38
SWIDTH 846 0
DWIDTH 11 0
BBX 11 14 0 -3
BITMAP
0000
0C00
1200
1200
0C00
19C0
2880
4500
4200
4300
3CC0
0000
0000
0000
ENDCHAR

STARTCHAR '
ENCODING 39
SWIDTH 846 0
DWIDTH 11 0
BBX 11 14 0 -3
BITMAP
0000
0C00
0400
0800
0000
0000
0000
0000
0000
0000
0000
0000
0000
0000
ENDCHAR

STARTCHAR (
ENCODING 40
SWIDTH 846 0
DWIDTH 11 0
BBX 11 14 0 -3
BITMAP
0000
0200
0400
0800
0800
1000
1000
1000
1000
1000
0800
0800
0400
0200
ENDCHAR

STARTCHAR )
ENCODING 41
SWIDTH 846 0
DWIDTH 11 0
BBX 11 14 0 -3
BITMAP
0000
1000
0800
0400
0400
0200
0200
0200
0200
0200
0400
0400
0800
1000
ENDCHAR

STARTCHAR *
ENCODING 42
SWIDTH 846 0
DWIDTH 11 0
BBX 11 14 0 -3
BITMAP
0400
1500
0E00
1500
0400
0000
0000
0000
0000
0000
0000
0000
0000
0000
ENDCHAR

STARTCHAR +
ENCODING 43
SWIDTH 846 0
DWIDTH 11 0
BBX 11 14 0 -3
BITMAP
0000
0000
0000
0400
0400
0400
3F80
0400
0400
0400
0000
0000
0000
0000
ENDCHAR

STARTCHAR ,
ENCODING 44
SWIDTH 846 0
DWIDTH 11 0
BBX 11 14 0 -3
BITMAP
0000
0000
0000
0000
0000
0000
0000
0000
0000
0C00
0400
0400
0800
0000
ENDCHAR

STARTCHAR -
ENCODING 45
SWIDTH 846 0
DWIDTH 11 0
BBX 11 14 0 -3
BITMAP
0000
0000
0000
0000
0000
0000
1F00
0000
0000
0000
0000
0000
0000
0000
ENDCHAR

STARTCHAR .
ENCODING 46
SWIDTH 846 0
DWIDTH 11 0
BBX 11 14 0 -3
BITMAP
0000
0000
0000
0000
0000
0000
0000
0000
0000
0400
0400
0000
0000
0000
ENDCHAR

STARTCHAR /
ENCODING 47
SWIDTH 846 0
DWIDTH 11 0
BBX 11 14 0 -3
BITMAP
0000
0100
0100
0200
0200
0400
0400
0800
0800
1000
1000
0000
0000
0000
ENDCHAR

STARTCHAR 0
ENCODING 48
SWIDTH 846 0
DWIDTH 11 0
BBX 11 14 0 -3
BITMAP
0000
0C00
1200
1200
2100
2100
2100
2100
1200
1200
0C00
0000
0000
0000
ENDCHAR

STARTCHAR 1
ENCODING 49
SWIDTH 846 0
DWIDTH 11 0
BBX 11 14 0 -3
BITMAP
0000
0400
0C00
1400
0400
0400
0400
0400
0400
0400
0E00
0000
0000
0000
ENDCHAR

STARTCHAR 2
ENCODING 50
SWIDTH 846 0
DWIDTH 11 0
BBX 11 14 0 -3
BITMAP
0000
1C00
2200
2200
0200
0200
0400
0400
0800
1100
3E00
0000
0000
0000
ENDCHAR

STARTCHAR 3
ENCODING 51
SWIDTH 846 0
DWIDTH 11 0
BBX 11 14 0 -3
BITMAP
0000
0C00
1200
0200
0400
0E00
0100
0100
0100
2200
1C00
0000
0000
0000
ENDCHAR

STARTCHAR 4
ENCODING 52
SWIDTH 846 0
DWIDTH 11 0
BBX 11 14 0 -3
BITMAP
0000
0600
0600
0A00
0A00
1200
1200
2200
3F00
0200
0200
0000
0000
0000
ENDCHAR

STARTCHAR 5
ENCODING 53
SWIDTH 846 0
DWIDTH 11 0
BBX 11 14 0 -3
BITMAP
0000
0E00
1000
1000
3C00
0200
0100
0100
0100
2200
1C00
0000
0000
0000
ENDCHAR

STARTCHAR 6
ENCODING 54
SWIDTH 846 0
DWIDTH 11 0
BBX 11 14 0 -3
BITMAP
0000
0600
0800
1000
1C00
2200
2100
2100
2100
1200
0C00
0000
0000
0000
ENDCHAR

STARTCHAR 7
ENCODING 55
SWIDTH 846 0
DWIDTH 11 0
BBX 11 14 0 -3
BITMAP
0000
1F00
2100
0100
0200
0200
0400
0400
0400
0800
0800
0000
0000
0000
ENDCHAR

STARTCHAR 8
ENCODING 56
SWIDTH 846 0
DWIDTH 11 0
BBX 11 14 0 -3
BITMAP
0000
0C00
1200
1200
1200
0C00
1200
2100
2100
2100
1E00
0000
0000
0000
ENDCHAR

STARTCHAR 9
ENCODING 57
SWIDTH 846 0
DWIDTH 11 0
BBX 11 14 0 -3
BITMAP
0000
0C00
1200
2100
2100
2100
1300
0D00
0100
0200
1C00
0000
0000
0000
ENDCHAR

STARTCHAR :
ENCODING 58
SWIDTH 846 0
DWIDTH 11 0
BBX 11 14 0 -3
BITMAP
0000
0000
0000
0000
0400
0400
0000
0000
0000
0400
0400
0000
0000
0000
ENDCHAR

STARTCHAR ;
ENCODING 59
SWIDTH 846 0
DWIDTH 11 0
BBX 11 14 0 -3
BITMAP
0000
0000
0000
0000
0400
0400
0000
0000
0000
0C00
0400
0400
0800
0000
ENDCHAR

STARTCHAR <
ENCODING 60
SWIDTH 846 0
DWIDTH 11 0
BBX 11 14 0 -3
BITMAP
0000
0100
0200
0400
0800
1000
1000
0800
0400
0200
0100
0000
0000
0000
ENDCHAR

STARTCHAR =
ENCODING 61
SWIDTH 846 0
DWIDTH 11 0
BBX 11 14 0 -3
BITMAP
0000
0000
0000
0000
0000
0000
1F00
0000
1F00
0000
0000
0000
0000
0000
ENDCHAR

STARTCHAR >
ENCODING 62
SWIDTH 846 0
DWIDTH 11 0
BBX 11 14 0 -3
BITMAP
0000
1000
0800
0400
0200
0100
0100
0200
0400
0800
1000
0000
0000
0000
ENDCHAR

STARTCHAR ?
ENCODING 63
SWIDTH 846 0
DWIDTH 11 0
BBX 11 14 0 -3
BITMAP
0000
0E00
1100
1900
0100
0200
0400
0400
0000
0400
0400
0000
0000
0000
ENDCHAR

STARTCHAR @
ENCODING 64
SWIDTH 846 0
DWIDTH 11 0
BBX 11 14 0 -3
BITMAP
1F00
3100
4080
4D40
9340
9140
9240
9280
5D00
4000
3080
1F00
0000
0000
ENDCHAR

STARTCHAR A
ENCODING 65
SWIDTH 846 0
DWIDTH 11 0
BBX 11 14 0 -3
BITMAP
0000
0400
0400
0A00
0A00
1100
1100
1F00
2080
2080
71C0
0000
0000
0000
ENDCHAR

STARTCHAR B
ENCODING 66
SWIDTH 846 0
DWIDTH 11 0
BBX 11 14 0 -3
BITMAP
0000
3E00
1100
1100
1100
1E00
1100
1080
1080
1080
3F00
0000
0000
0000
ENDCHAR

STARTCHAR C
ENCODING 67
SWIDTH 846 0
DWIDTH 11 0
BBX 11 14 0 -3
BITMAP
0000
0E80
3180
2080
4000
4000
4000
4000
2080
3080
0F00
0000
0000
0000
ENDCHAR

STARTCHAR D
ENCODING 68
SWIDTH 846 0
DWIDTH 11 0
BBX 11 14 0 -3
BITMAP
0000
7E00
2180
2080
2040
2040
2040
2040
2080
2180
7E00
0000
0000
0000
ENDCHAR

STARTCHAR E
ENCODING 69
SWIDTH 846 0
DWIDTH 11 0
BBX 11 14 0 -3
BITMAP
0000
7F00
2100
2100
2400
3C00
2400
2000
2080
2080
7F80
0000
0000
0000
ENDCHAR

STARTCHAR F
ENCODING 70
SWIDTH 846 0
DWIDTH 11 0
BBX 11 14 0 -3
BITMAP
0000
3F80
1080
1080
1200
1E00
1200
1000
1000
1000
3C00
0000
0000
0000
ENDCHAR

STARTCHAR G
ENCODING 71
SWIDTH 846 0
DWIDTH 11 0
BBX 11 14 0 -3
BITMAP
0000
1E80
6180
4080
8000
8000
83C0
8080
4080
6180
1F00
0000
0000
0000
ENDCHAR

STARTCHAR H
ENCODING 72
SWIDTH 846 0
DWIDTH 11 0
BBX 11 14 0 -3
BITMAP
0000
71C0
2080
2080
2080
3F80
2080
2080
2080
2080
71C0
0000
0000
0000
ENDCHAR

STARTCHAR I
ENCODING 73
SWIDTH 846 0
DWIDTH 11 0
BBX 11 14 0 -3
BITMAP
0000
0E00
0400
0400
0400
0400
0400
0400
0400
0400
0E00
0000
0000
0000
ENDCHAR

STARTCHAR J
ENCODING 74
SWIDTH 846 0
DWIDTH 11 0
BBX 11 14 0 -3
BITMAP
0000
0700
0200
0200
0200
0200
0200
0200
1200
1200
0C00
0000
0000
0000
ENDCHAR

STARTCHAR K
ENCODING 75
SWIDTH 846 0
DWIDTH 11 0
BBX 11 14 0 -3
BITMAP
0000
7780
2200
2400
2800
3800
2C00
2600
2300
2180
73C0
0000
0000
0000
ENDCHAR

STARTCHAR L
ENCODING 76
SWIDTH 846 0
DWIDTH 11 0
BBX 11 14 0 -3
BITMAP
0000
3800
1000
1000
1000
1000
1000
1000
1080
1080
3F80
0000
0000
0000
ENDCHAR

STARTCHAR M
ENCODING 77
SWIDTH 846 0
DWIDTH 11 0
BBX 11 14 0 -3
BITMAP
0000
E1C0
6180
5280
5280
5280
4C80
4C80
4C80
4480
E5C0
0000
0000
0000
ENDCHAR

STARTCHAR N
ENCODING 78
SWIDTH 846 0
DWIDTH 11 0
BBX 11 14 0 -3
BITMAP
0000
E1C0
6080
5080
5880
4880
4480
4680
4280
4180
E180
0000
0000
0000
ENDCHAR

STARTCHAR O
ENCODING 79
SWIDTH 846 0
DWIDTH 11 0
BBX 11 14 0 -3
BITMAP
0000
0E00
3180
2080
4040
4040
4040
4040
2080
3180
0E00
0000
0000
0000
ENDCHAR

STARTCHAR P
ENCODING 80
SWIDTH 846 0
DWIDTH 11 0
BBX 11 14 0 -3
BITMAP
0000
3F00
1080
1080
1080
1080
1F00
1000
1000
1000
3C00
0000
0000
0000
ENDCHAR

STARTCHAR Q
ENCODING 81
SWIDTH 846 0
DWIDTH 11 0
BBX 11 14 0 -3
BITMAP
0000
0E00
3180
2080
4040
4040
4040
4040
2080
3180
0E00
0400
0200
0180
ENDCHAR

STARTCHAR R
ENCODING 82
SWIDTH 846 0
DWIDTH 11 0
BBX 11 14 0 -3
BITMAP
0000
7E00
2100
2100
2100
3E00
2400
2200
2200
2100
7180
0000
0000
0000
ENDCHAR

STARTCHAR S
ENCODING 83
SWIDTH 846 0
DWIDTH 11 0
BBX 11 14 0 -3
BITMAP
0000
1A00
2600
2200
1000
0C00
0200
2100
2100
3100
2E00
0000
0000
0000
ENDCHAR

STARTCHAR T
ENCODING 84
SWIDTH 846 0
DWIDTH 11 0
BBX 11 14 0 -3
BITMAP
0000
7FC0
4440
4440
0400
0400
0400
0400
0400
0400
1F00
0000
0000
0000
ENDCHAR

STARTCHAR U
ENCODING 85
SWIDTH 846 0
DWIDTH 11 0
BBX 11 14 0 -3
BITMAP
0000
71C0
2080
2080
2080
2080
2080
2080
2080
3180
1F00
0000
0000
0000
ENDCHAR

STARTCHAR V
ENCODING 86
SWIDTH 846 0
DWIDTH 11 0
BBX 11 14 0 -3
BITMAP
0000
71C0
2080
2080
1100
1100
1100
0A00
0A00
0400
0400
0000
0000
0000
ENDCHAR

STARTCHAR W
ENCODING 87
SWIDTH 846 0
DWIDTH 11 0
BBX 11 14 0 -3
BITMAP
0000
FDC0
4880
4C80
6480
2D00
2F00
3300
1300
1100
1100
0000
0000
0000
ENDCHAR

STARTCHAR X
ENCODING 88
SWIDTH 846 0
DWIDTH 11 0
BBX 11 14 0 -3
BITMAP
0000
71C0
2080
1100
0A00
0C00
0600
0A00
1100
2080
71C0
0000
0000
0000
ENDCHAR

STARTCHAR Y
ENCODING 89
SWIDTH 846 0
DWIDTH 11 0
BBX 11 14 0 -3
BITMAP
0000
71C0
2080
1100
1100
0A00
0400
0400
0400
0400
0E00
0000
0000
0000
ENDCHAR

STARTCHAR Z
ENCODING 90
SWIDTH 846 0
DWIDTH 11 0
BBX 11 14 0 -3
BITMAP
0000
3F00
2100
2100
0200
0400
0800
1000
2080
2080
3F80
0000
0000
0000
ENDCHAR

STARTCHAR [
ENCODING 91
SWIDTH 846 0
DWIDTH 11 0
BBX 11 14 0 -3
BITMAP
1E00
1000
1000
1000
1000
1000
1000
1000
1000
1000
1000
1000
1000
1E00
ENDCHAR

STARTCHAR \
ENCODING 92
SWIDTH 846 0
DWIDTH 11 0
BBX 11 14 0 -3
BITMAP
0000
1000
1000
0800
0800
0400
0400
0200
0200
0100
0100
0000
0000
0000
ENDCHAR

STARTCHAR ]
ENCODING 93
SWIDTH 846 0
DWIDTH 11 0
BBX 11 14 0 -3
BITMAP
1E00
0200
0200
0200
0200
0200
0200
0200
0200
0200
0200
0200
0200
1E00
ENDCHAR

STARTCHAR ^
ENCODING 94
SWIDTH 846 0
DWIDTH 11 0
BBX 11 14 0 -3
BITMAP
0000
0000
0000
0400
0E00
1500
2480
0400
0400
0400
0000
0000
0000
0000
ENDCHAR

STARTCHAR _
ENCODING 95
SWIDTH 846 0
DWIDTH 11 0
BBX 11 14 0 -3
BITMAP
0000
0000
0000
0400
0800
1000
3F80
1000
0800
0400
0000
0000
0000
0000
ENDCHAR

STARTCHAR `
ENCODING 96
SWIDTH 846 0
DWIDTH 11 0
BBX 11 14 0 -3
BITMAP
0000
0400
0800
0C00
0000
0000
0000
0000
0000
0000
0000
0000
0000
0000
ENDCHAR

STARTCHAR a
ENCODING 97
SWIDTH 846 0
DWIDTH 11 0
BBX 11 14 0 -3
BITMAP
0000
0000
0000
0000
0E00
1100
0300
0D00
1100
1300
0D80
0000
0000
0000
ENDCHAR

STARTCHAR b
ENCODING 98
SWIDTH 846 0
DWIDTH 11 0
BBX 11 14 0 -3
BITMAP
0000
3000
1000
1000
1600
1900
1080
1080
1080
1100
0E00
0000
0000
0000
ENDCHAR

STARTCHAR c
ENCODING 99
SWIDTH 846 0
DWIDTH 11 0
BBX 11 14 0 -3
BITMAP
0000
0000
0000
0000
0E00
1100
2000
2000
2000
1100
0E00
0000
0000
0000
ENDCHAR

STARTCHAR d
ENCODING 100
SWIDTH 846 0
DWIDTH 11 0
BBX 11 14 0 -3
BITMAP
0000
0300
0100
0100
0D00
1300
2100
2100
2100
1300
0D80
0000
0000
0000
ENDCHAR

STARTCHAR e
ENCODING 101
SWIDTH 846 0
DWIDTH 11 0
BBX 11 14 0 -3
BITMAP
0000
0000
0000
0000
0E00
1100
2100
3F00
2000
1100
0E00
0000
0000
0000
ENDCHAR

STARTCHAR f
ENCODING 102
SWIDTH 846 0
DWIDTH 11 0
BBX 11 14 0 -3
BITMAP
0000
0600
0900
0800
1C00
0800
0800
0800
0800
0800
1C00
0000
0000
0000
ENDCHAR

STARTCHAR g
ENCODING 103
SWIDTH 846 0
DWIDTH 11 0
BBX 11 14 0 -3
BITMAP
0000
0000
0000
0000
0D00
1200
1200
1200
0C00
1000
1E00
2100
2100
1E00
ENDCHAR

STARTCHAR h
ENCODING 104
SWIDTH 846 0
DWIDTH 11 0
BBX 11 14 0 -3
BITMAP
0000
3000
1000
1000
1600
1900
1100
1100
1100
1100
3B80
0000
0000
0000
ENDCHAR

STARTCHAR i
ENCODING 105
SWIDTH 846 0
DWIDTH 11 0
BBX 11 14 0 -3
BITMAP
0000
0400
0400
0000
0C00
0400
0400
0400
0400
0400
0E00
0000
0000
0000
ENDCHAR

STARTCHAR j
ENCODING 106
SWIDTH 846 0
DWIDTH 11 0
BBX 11 14 0 -3
BITMAP
0000
0400
0400
0000
0C00
0400
0400
0400
0400
0400
0400
0400
1400
0800
ENDCHAR

STARTCHAR k
ENCODING 107
SWIDTH 846 0
DWIDTH 11 0
BBX 11 14 0 -3
BITMAP
0000
3000
1000
1000
1300
1200
1400
1C00
1200
1100
3980
0000
0000
0000
ENDCHAR

STARTCHAR l
ENCODING 108
SWIDTH 846 0
DWIDTH 11 0
BBX 11 14 0 -3
BITMAP
0000
0C00
0400
0400
0400
0400
0400
0400
0400
0400
0E00
0000
0000
0000
ENDCHAR

STARTCHAR m
ENCODING 109
SWIDTH 846 0
DWIDTH 11 0
BBX 11 14 0 -3
BITMAP
0000
0000
0000
0000
DB00
6480
4480
4480
4480
4480
EDC0
0000
0000
0000
ENDCHAR

STARTCHAR n
ENCODING 110
SWIDTH 846 0
DWIDTH 11 0
BBX 11 14 0 -3
BITMAP
0000
0000
0000
0000
3600
1900
1100
1100
1100
1100
3B80
0000
0000
0000
ENDCHAR

STARTCHAR o
ENCODING 111
SWIDTH 846 0
DWIDTH 11 0
BBX 11 14 0 -3
BITMAP
0000
0000
0000
0000
0C00
1200
2100
2100
2100
1200
0C00
0000
0000
0000
ENDCHAR

STARTCHAR p
ENCODING 112
SWIDTH 846 0
DWIDTH 11 0
BBX 11 14 0 -3
BITMAP
0000
0000
0000
0000
3600
1900
1080
1080
1080
1900
1600
1000
1000
3800
ENDCHAR

STARTCHAR q
ENCODING 113
SWIDTH 846 0
DWIDTH 11 0
BBX 11 14 0 -3
BITMAP
0000
0000
0000
0000
0D00
1300
2100
2100
2100
1300
0D00
0100
0100
0380
ENDCHAR

STARTCHAR r
ENCODING 114
SWIDTH 846 0
DWIDTH 11 0
BBX 11 14 0 -3
BITMAP
0000
0000
0000
0000
1E00
0A00
0800
0800
0800
0800
1C00
0000
0000
0000
ENDCHAR

STARTCHAR s
ENCODING 115
SWIDTH 846 0
DWIDTH 11 0
BBX 11 14 0 -3
BITMAP
0000
0000
0000
0000
0C00
1200
1000
0C00
0200
1200
0C00
0000
0000
0000
ENDCHAR

STARTCHAR t
ENCODING 116
SWIDTH 846 0
DWIDTH 11 0
BBX 11 14 0 -3
BITMAP
0000
0000
0400
0400
0E00
0400
0400
0400
0400
0500
0200
0000
0000
0000
ENDCHAR

STARTCHAR u
ENCODING 117
SWIDTH 846 0
DWIDTH 11 0
BBX 11 14 0 -3
BITMAP
0000
0000
0000
0000
3300
1100
1100
1100
1100
1300
0D80
0000
0000
0000
ENDCHAR

STARTCHAR v
ENCODING 118
SWIDTH 846 0
DWIDTH 11 0
BBX 11 14 0 -3
BITMAP
0000
0000
0000
0000
7700
2200
2200
1400
1400
0800
0800
0000
0000
0000
ENDCHAR

STARTCHAR w
ENCODING 119
SWIDTH 846 0
DWIDTH 11 0
BBX 11 14 0 -3
BITMAP
0000
0000
0000
0000
EEE0
4440
2480
2E80
2A80
1100
1100
0000
0000
0000
ENDCHAR

STARTCHAR x
ENCODING 120
SWIDTH 846 0
DWIDTH 11 0
BBX 11 14 0 -3
BITMAP
0000
0000
0000
0000
3B80
1100
0E00
0400
0A00
1100
3B80
0000
0000
0000
ENDCHAR

STARTCHAR y
ENCODING 121
SWIDTH 846 0
DWIDTH 11 0
BBX 11 14 0 -3
BITMAP
0000
0000
0000
0000
7380
2100
1100
1200
0A00
0C00
0400
0400
2800
1800
ENDCHAR

STARTCHAR z
ENCODING 122
SWIDTH 846 0
DWIDTH 11 0
BBX 11 14 0 -3
BITMAP
0000
0000
0000
0000
1F00
1100
0200
0400
0800
1100
1F00
0000
0000
0000
ENDCHAR

STARTCHAR {
ENCODING 123
SWIDTH 846 0
DWIDTH 11 0
BBX 11 14 0 -3
BITMAP
0300
0400
0400
0400
0400
0400
1800
0400
0400
0400
0400
0400
0400
0300
ENDCHAR

STARTCHAR |
ENCODING 124
SWIDTH 846 0
DWIDTH 11 0
BBX 11 14 0 -3
BITMAP
0000
0400
0400
0400
0400
0400
0400
0400
0400
0400
0400
0400
0400
0000
ENDCHAR

STARTCHAR }
ENCODING 125
SWIDTH 846 0
DWIDTH 11 0
BBX 11 14 0 -3
BITMAP
1800
0400
0400
0400
0400
0400
0300
0400
0400
0400
0400
0400
0400
1800
ENDCHAR

STARTCHAR ~
ENCODING 126
SWIDTH 846 0
DWIDTH 11 0
BBX 11 14 0 -3
BITMAP
0000
0000
0000
0000
1880
2480
2300
0000
0000
0000
0000
0000
0000
0000
ENDCHAR
ENDFONT
